{
	"asset":{
		"generator":"Khronos glTF Blender I/O v4.0.44",
		"version":"2.0"
	},
	"extensionsUsed":[
		"KHR_materials_specular",
		"KHR_materials_ior"
	],
	"scene":0,
	"scenes":[
		{
			"name":"Scene",
			"nodes":[
				0,
				1,
				2,
				3,
				4,
				5,
				6,
				7,
				8,
				9,
				10
			]
		}
	],
	"nodes":[
		{
			"mesh":0,
			"name":"Roundcube",
			"scale":[
				1.6871702671051025,
				1.6871702671051025,
				1.6871702671051025
			],
			"translation":[
				36.64821243286133,
				0.6043512225151062,
				0.18476200103759766
			]
		},
		{
			"name":"Circle.001",
			"scale":[
				3.0846924781799316,
				3.0846924781799316,
				3.0846924781799316
			],
			"translation":[
				39.551048278808594,
				0.4700719714164734,
				0.4096512794494629
			]
		},
		{
			"name":"Circle.002",
			"scale":[
				0.10791382193565369,
				0.10791387408971786,
				0.10791389644145966
			],
			"translation":[
				39.551048278808594,
				0.47007137537002563,
				0.4096512794494629
			]
		},
		{
			"mesh":1,
			"name":"Cylinder",
			"rotation":[
				0.9317728877067566,
				0.09908569604158401,
				0.030900705605745316,
				0.3478888273239136
			],
			"scale":[
				0.8469369411468506,
				0.8469370603561401,
				0.8469369411468506
			],
			"translation":[
				36.06100082397461,
				1.509841799736023,
				1.212697982788086
			]
		},
		{
			"mesh":2,
			"name":"Cylinder.001",
			"rotation":[
				0.5628849267959595,
				-0.24005009233951569,
				-0.05216967314481735,
				0.7891863584518433
			],
			"scale":[
				0.8469369411468506,
				0.8469370007514954,
				0.8469369411468506
			],
			"translation":[
				36.491329193115234,
				1.9463624954223633,
				0.3473381996154785
			]
		},
		{
			"mesh":3,
			"name":"Cylinder.002",
			"rotation":[
				0.6731645464897156,
				-0.4805418848991394,
				0.09080484509468079,
				0.5546922087669373
			],
			"scale":[
				0.8469368815422058,
				0.8469370007514954,
				0.8469370603561401
			],
			"translation":[
				36.491329193115234,
				2.9700210094451904,
				1.1429071426391602
			]
		},
		{
			"mesh":4,
			"name":"Cylinder.003",
			"rotation":[
				-0.31051862239837646,
				0.8817324042320251,
				-0.3339674472808838,
				0.12079707533121109
			],
			"scale":[
				0.8469370007514954,
				0.8469370007514954,
				0.8469370007514954
			],
			"translation":[
				37.01494598388672,
				3.1375088691711426,
				0.3402576446533203
			]
		},
		{
			"mesh":5,
			"name":"Cylinder.004",
			"rotation":[
				0.613239586353302,
				-0.40521538257598877,
				0.1011415421962738,
				0.670453667640686
			],
			"scale":[
				0.8469368815422058,
				0.8469370603561401,
				0.8469368815422058
			],
			"translation":[
				35.120826721191406,
				2.2828211784362793,
				0.7602338790893555
			]
		},
		{
			"mesh":6,
			"name":"Cube.003",
			"rotation":[
				0.02729797549545765,
				-0.18752466142177582,
				0.042080651968717575,
				0.9809783697128296
			],
			"scale":[
				0.08856899291276932,
				0.08856897056102753,
				0.08856900781393051
			],
			"translation":[
				34.26874542236328,
				0.5619306564331055,
				1.1021442413330078
			]
		},
		{
			"mesh":7,
			"name":"Cube.001",
			"rotation":[
				0.02729797549545765,
				-0.18752466142177582,
				0.042080651968717575,
				0.9809783697128296
			],
			"scale":[
				0.08856899291276932,
				0.08856897056102753,
				0.08856900781393051
			],
			"translation":[
				38.935420989990234,
				3.484494686126709,
				1.1021451950073242
			]
		},
		{
			"mesh":8,
			"name":"Sphere.002",
			"rotation":[
				0.6642562747001648,
				0.4593973457813263,
				-0.5372166037559509,
				0.2431379109621048
			],
			"scale":[
				2.25557017326355,
				2.255570888519287,
				2.255570650100708
			],
			"translation":[
				10.292820930480957,
				-20.638900756835938,
				-2.750904059212189e-06
			]
		}
	],
	"materials":[
		{
			"doubleSided":true,
			"extensions":{
				"KHR_materials_specular":{
					"specularFactor":0
				},
				"KHR_materials_ior":{
					"ior":1.4500000476837158
				}
			},
			"name":"A5",
			"pbrMetallicRoughness":{
				"baseColorFactor":[
					0.8000000715255737,
					0.28944841027259827,
					0.09340459853410721,
					1
				],
				"metallicFactor":0,
				"roughnessFactor":0.5
			}
		},
		{
			"doubleSided":true,
			"extensions":{
				"KHR_materials_specular":{
					"specularFactor":0.06753236055374146
				},
				"KHR_materials_ior":{
					"ior":1.4500000476837158
				}
			},
			"name":"A8",
			"pbrMetallicRoughness":{
				"metallicFactor":0,
				"roughnessFactor":0.5837662220001221
			}
		},
		{
			"doubleSided":true,
			"extensions":{
				"KHR_materials_specular":{
					"specularFactor":0
				},
				"KHR_materials_ior":{
					"ior":1.4500000476837158
				}
			},
			"name":"A7",
			"pbrMetallicRoughness":{
				"baseColorFactor":[
					0.20576460659503937,
					0.2639048099517822,
					0.03430018946528435,
					1
				],
				"metallicFactor":0,
				"roughnessFactor":0.5
			}
		}
	],
	"meshes":[
		{
			"name":"Roundcube",
			"primitives":[
				{
					"attributes":{
						"POSITION":0,
						"NORMAL":1
					},
					"indices":2,
					"material":0
				}
			]
		},
		{
			"name":"Cylinder",
			"primitives":[
				{
					"attributes":{
						"POSITION":3,
						"NORMAL":4,
						"TEXCOORD_0":5
					},
					"indices":6,
					"material":1
				}
			]
		},
		{
			"name":"Cylinder.001",
			"primitives":[
				{
					"attributes":{
						"POSITION":7,
						"NORMAL":8,
						"TEXCOORD_0":9
					},
					"indices":6,
					"material":1
				}
			]
		},
		{
			"name":"Cylinder.002",
			"primitives":[
				{
					"attributes":{
						"POSITION":10,
						"NORMAL":11,
						"TEXCOORD_0":12
					},
					"indices":6,
					"material":1
				}
			]
		},
		{
			"name":"Cylinder.003",
			"primitives":[
				{
					"attributes":{
						"POSITION":13,
						"NORMAL":14,
						"TEXCOORD_0":15
					},
					"indices":6,
					"material":1
				}
			]
		},
		{
			"name":"Cylinder.004",
			"primitives":[
				{
					"attributes":{
						"POSITION":16,
						"NORMAL":17,
						"TEXCOORD_0":18
					},
					"indices":6,
					"material":1
				}
			]
		},
		{
			"name":"Cube.008",
			"primitives":[
				{
					"attributes":{
						"POSITION":19,
						"NORMAL":20,
						"TEXCOORD_0":21
					},
					"indices":22
				}
			]
		},
		{
			"name":"Cube.002",
			"primitives":[
				{
					"attributes":{
						"POSITION":23,
						"NORMAL":24,
						"TEXCOORD_0":25
					},
					"indices":22
				}
			]
		},
		{
			"name":"Sphere.002",
			"primitives":[
				{
					"attributes":{
						"POSITION":26,
						"NORMAL":27,
						"TEXCOORD_0":28
					},
					"indices":29,
					"material":2
				}
			]
		}
	],
	"accessors":[
		{
			"bufferView":0,
			"componentType":5126,
			"count":561,
			"max":[
				2.3814449310302734,
				1.8511512279510498,
				1.3585506677627563
			],
			"min":[
				-1.6172031164169312,
				-1.8230888843536377,
				-1.463889479637146
			],
			"type":"VEC3"
		},
		{
			"bufferView":1,
			"componentType":5126,
			"count":561,
			"type":"VEC3"
		},
		{
			"bufferView":2,
			"componentType":5123,
			"count":3264,
			"type":"SCALAR"
		},
		{
			"bufferView":3,
			"componentType":5126,
			"count":277,
			"max":[
				1,
				0.39112892746925354,
				1
			],
			"min":[
				-1,
				-0.28128373622894287,
				-1
			],
			"type":"VEC3"
		},
		{
			"bufferView":4,
			"componentType":5126,
			"count":277,
			"type":"VEC3"
		},
		{
			"bufferView":5,
			"componentType":5126,
			"count":277,
			"type":"VEC2"
		},
		{
			"bufferView":6,
			"componentType":5123,
			"count":1206,
			"type":"SCALAR"
		},
		{
			"bufferView":7,
			"componentType":5126,
			"count":277,
			"max":[
				1,
				0.39112892746925354,
				1
			],
			"min":[
				-1,
				-0.28128373622894287,
				-1
			],
			"type":"VEC3"
		},
		{
			"bufferView":8,
			"componentType":5126,
			"count":277,
			"type":"VEC3"
		},
		{
			"bufferView":9,
			"componentType":5126,
			"count":277,
			"type":"VEC2"
		},
		{
			"bufferView":10,
			"componentType":5126,
			"count":277,
			"max":[
				1,
				0.39112892746925354,
				1
			],
			"min":[
				-1,
				-0.28128373622894287,
				-1
			],
			"type":"VEC3"
		},
		{
			"bufferView":11,
			"componentType":5126,
			"count":277,
			"type":"VEC3"
		},
		{
			"bufferView":12,
			"componentType":5126,
			"count":277,
			"type":"VEC2"
		},
		{
			"bufferView":13,
			"componentType":5126,
			"count":277,
			"max":[
				1,
				0.39112892746925354,
				1
			],
			"min":[
				-1,
				-0.28128373622894287,
				-1
			],
			"type":"VEC3"
		},
		{
			"bufferView":14,
			"componentType":5126,
			"count":277,
			"type":"VEC3"
		},
		{
			"bufferView":15,
			"componentType":5126,
			"count":277,
			"type":"VEC2"
		},
		{
			"bufferView":16,
			"componentType":5126,
			"count":277,
			"max":[
				1,
				0.39112892746925354,
				1
			],
			"min":[
				-1,
				-0.28128373622894287,
				-1
			],
			"type":"VEC3"
		},
		{
			"bufferView":17,
			"componentType":5126,
			"count":277,
			"type":"VEC3"
		},
		{
			"bufferView":18,
			"componentType":5126,
			"count":277,
			"type":"VEC2"
		},
		{
			"bufferView":19,
			"componentType":5126,
			"count":36,
			"max":[
				4,
				4,
				1
			],
			"min":[
				-4,
				-4,
				-1
			],
			"type":"VEC3"
		},
		{
			"bufferView":20,
			"componentType":5126,
			"count":36,
			"type":"VEC3"
		},
		{
			"bufferView":21,
			"componentType":5126,
			"count":36,
			"type":"VEC2"
		},
		{
			"bufferView":22,
			"componentType":5123,
			"count":132,
			"type":"SCALAR"
		},
		{
			"bufferView":23,
			"componentType":5126,
			"count":36,
			"max":[
				4,
				4,
				1
			],
			"min":[
				-4,
				-4,
				-1
			],
			"type":"VEC3"
		},
		{
			"bufferView":24,
			"componentType":5126,
			"count":36,
			"type":"VEC3"
		},
		{
			"bufferView":25,
			"componentType":5126,
			"count":36,
			"type":"VEC2"
		},
		{
			"bufferView":26,
			"componentType":5126,
			"count":559,
			"max":[
				0.9999997019767761,
				1,
				0.9999994039535522
			],
			"min":[
				-0.9999990463256836,
				-1,
				-0.9999987483024597
			],
			"type":"VEC3"
		},
		{
			"bufferView":27,
			"componentType":5126,
			"count":559,
			"type":"VEC3"
		},
		{
			"bufferView":28,
			"componentType":5126,
			"count":559,
			"type":"VEC2"
		},
		{
			"bufferView":29,
			"componentType":5123,
			"count":2880,
			"type":"SCALAR"
		}
	],
	"bufferViews":[
		{
			"buffer":0,
			"byteLength":6732,
			"byteOffset":0,
			"target":34962
		},
		{
			"buffer":0,
			"byteLength":6732,
			"byteOffset":6732,
			"target":34962
		},
		{
			"buffer":0,
			"byteLength":6528,
			"byteOffset":13464,
			"target":34963
		},
		{
			"buffer":0,
			"byteLength":3324,
			"byteOffset":19992,
			"target":34962
		},
		{
			"buffer":0,
			"byteLength":3324,
			"byteOffset":23316,
			"target":34962
		},
		{
			"buffer":0,
			"byteLength":2216,
			"byteOffset":26640,
			"target":34962
		},
		{
			"buffer":0,
			"byteLength":2412,
			"byteOffset":28856,
			"target":34963
		},
		{
			"buffer":0,
			"byteLength":3324,
			"byteOffset":31268,
			"target":34962
		},
		{
			"buffer":0,
			"byteLength":3324,
			"byteOffset":34592,
			"target":34962
		},
		{
			"buffer":0,
			"byteLength":2216,
			"byteOffset":37916,
			"target":34962
		},
		{
			"buffer":0,
			"byteLength":3324,
			"byteOffset":40132,
			"target":34962
		},
		{
			"buffer":0,
			"byteLength":3324,
			"byteOffset":43456,
			"target":34962
		},
		{
			"buffer":0,
			"byteLength":2216,
			"byteOffset":46780,
			"target":34962
		},
		{
			"buffer":0,
			"byteLength":3324,
			"byteOffset":48996,
			"target":34962
		},
		{
			"buffer":0,
			"byteLength":3324,
			"byteOffset":52320,
			"target":34962
		},
		{
			"buffer":0,
			"byteLength":2216,
			"byteOffset":55644,
			"target":34962
		},
		{
			"buffer":0,
			"byteLength":3324,
			"byteOffset":57860,
			"target":34962
		},
		{
			"buffer":0,
			"byteLength":3324,
			"byteOffset":61184,
			"target":34962
		},
		{
			"buffer":0,
			"byteLength":2216,
			"byteOffset":64508,
			"target":34962
		},
		{
			"buffer":0,
			"byteLength":432,
			"byteOffset":66724,
			"target":34962
		},
		{
			"buffer":0,
			"byteLength":432,
			"byteOffset":67156,
			"target":34962
		},
		{
			"buffer":0,
			"byteLength":288,
			"byteOffset":67588,
			"target":34962
		},
		{
			"buffer":0,
			"byteLength":264,
			"byteOffset":67876,
			"target":34963
		},
		{
			"buffer":0,
			"byteLength":432,
			"byteOffset":68140,
			"target":34962
		},
		{
			"buffer":0,
			"byteLength":432,
			"byteOffset":68572,
			"target":34962
		},
		{
			"buffer":0,
			"byteLength":288,
			"byteOffset":69004,
			"target":34962
		},
		{
			"buffer":0,
			"byteLength":6708,
			"byteOffset":69292,
			"target":34962
		},
		{
			"buffer":0,
			"byteLength":6708,
			"byteOffset":76000,
			"target":34962
		},
		{
			"buffer":0,
			"byteLength":4472,
			"byteOffset":82708,
			"target":34962
		},
		{
			"buffer":0,
			"byteLength":5760,
			"byteOffset":87180,
			"target":34963
		}
	],
	"buffers":[
		{
			"byteLength":92940,
			"uri":"glob.bin"
		}
	]
}
